<svg width="234" height="66" viewBox="0 0 234 66" fill="none" xmlns="http://www.w3.org/2000/svg">
<path fill-rule="evenodd" clip-rule="evenodd" d="M75.6359 0.5L78.1581 0.628116L80.6486 1.07475L83.0422 1.776L85.3058 2.70191L87.4409 3.91381L89.3491 5.31763L91.0956 6.94482L92.5835 8.7313L93.8128 10.7724L94.6536 12.9742L95.2039 15.3027L95.4294 17.7917V21.2681H80.7785V20.5668L80.7136 19.9282L80.6486 19.0676L80.4218 18.3023L80.0664 17.5044L79.1607 16.3879L78.0282 15.5899L76.6703 15.112L75.1174 14.9529L73.9862 15.0481L72.8537 15.3029L71.7862 15.7495L70.8805 16.388L70.1697 17.1533L69.6843 18.0793L69.5225 19.1318L69.6843 20.1517L70.1047 20.9822L70.7518 21.6196L71.5926 22.1302L72.4983 22.5454L73.5009 22.8954L77.5442 24.2679L79.2906 24.9052L81.069 25.6078L82.8486 26.437L84.7569 27.5849L87.0205 29.2121L88.832 30.9033L90.4167 32.913L91.6128 35.0182L92.4536 37.3793L92.9389 39.931L93.1007 42.6747L92.8753 45.6731L92.325 48.5761L91.3224 51.2563L89.9632 53.7447L88.3466 56.1054L86.4384 58.2109L84.3365 59.9974L81.9097 61.5606L79.3543 62.8366L76.6053 63.7617L73.7276 64.3041L70.7518 64.5274L68.2614 64.4636L65.9964 64.3041L63.8946 63.9533L61.8245 63.4748L59.9162 62.6134L58.008 61.5607L56.0347 60.1251L54.0615 58.2111L52.4118 56.2331L51.2157 54.1915L50.3099 51.8945L49.6628 49.5022L49.3074 46.9491L49.2424 44.1741V41.8456H64.6703V43.4728L64.8003 44.4614L65.0907 45.6093L65.5761 46.6631L66.2233 47.6517L67.129 48.5763L68.1965 49.2789L69.264 49.7255L70.4601 49.9803L71.6576 50.0755L73.0156 49.916L74.2767 49.566L75.4092 48.9274L76.3149 48.0655L77.0907 47.077L77.6079 45.9604L77.7378 44.6846L77.6079 43.5993L77.0907 42.6747L76.4767 41.9735L75.5378 41.3349L74.5684 40.8569L73.5009 40.4103L72.3684 39.995L70.2334 39.2297L68.3901 38.4958L66.6436 37.7932L64.8003 37.028L62.8271 36.0068L60.757 34.8275L59.0105 33.391L57.5227 31.7638L56.3902 29.9147L55.5176 28.0002L54.9023 25.8951L54.5469 23.534L54.3851 21.1416L54.6119 18.3026L55.194 15.5902L56.0997 13.0384L57.3609 10.646L58.8488 8.44421L60.6921 6.46575L62.7621 4.74323L65.0271 3.27672L67.4194 2.1275L70.0398 1.20292L72.7888 0.723648L75.6359 0.5Z" fill="#FFCD00"/>
<path fill-rule="evenodd" clip-rule="evenodd" d="M11.691 1.83987H52.2831L49.7277 18.4929H24.2731L23.626 24.8096H46.9137L44.3583 40.218H20.5852L19.6158 46.4393H45.5558L42.7418 63.1872H0.5L0.855758 61.2093L1.34086 58.9124L1.85844 56.2964L2.34353 53.3933L2.89346 50.267L3.47562 46.9487L4.1225 43.4723L4.73702 39.9307L5.3839 36.2297L6.09549 32.6254L6.74235 28.9245L7.35688 25.3201L8.00375 21.8425L8.55368 18.4289L9.13584 15.2385L9.68565 12.2088L10.2032 9.49642L10.6883 7.00867L11.0441 4.90223L11.3999 3.17972L11.691 1.83987Z" fill="#FFCD00"/>
<path fill-rule="evenodd" clip-rule="evenodd" d="M101.284 1.83987H144.661L141.903 18.4929H128.098L120.69 63.1872H104.325L112.055 18.4929H98.2434L101.284 1.83987Z" fill="#FFCD00"/>
<path fill-rule="evenodd" clip-rule="evenodd" d="M149.316 1.83987H190.199L187.574 18.4929H162.192L161.224 24.7456H184.829L182.017 40.218H158.439L157.524 46.4393H183.41L180.585 63.1872H138.349L138.415 62.3259L138.64 61.1136L138.866 59.4866L139.197 57.5086L139.542 55.2437L140.059 52.6915L140.55 49.9157L141.041 47.0126L141.611 43.8863L142.261 40.6332L142.884 37.2836L144.78 27.074L145.364 23.757L145.987 20.5026L146.571 17.3763L147.114 14.4093L147.631 11.6342L148.122 9.08246L148.48 6.72135L148.825 4.74289L149.117 3.11576L149.316 1.83987Z" fill="#FFCD00"/>
<path fill-rule="evenodd" clip-rule="evenodd" d="M212.969 0.5L215.528 0.628116L218.008 1.07475L220.408 1.776L222.676 2.70191L224.811 3.91381L226.72 5.31763L228.391 6.94482L229.89 8.7313L231.15 10.7724L232.025 12.9742L232.569 15.3027L232.794 17.7917V21.2681H218.074V19.9282L217.915 19.0676L217.716 18.3023L217.371 17.5044L216.655 16.5785L215.82 15.8773L214.812 15.3027L213.738 15.0479L212.478 14.9527L211.285 15.0479L210.157 15.3027L209.15 15.7493L208.248 16.3879L207.532 17.1531L207.054 18.079L206.882 19.1316L207.054 20.1515L207.465 20.9821L208.115 21.6194L208.964 22.13L209.866 22.5452L210.86 22.8952L214.878 24.2678L216.655 24.905L218.366 25.6076L220.116 26.4369L222.026 27.5848L224.028 28.9886L225.713 30.4878L227.198 32.1149L228.391 33.9654L229.24 35.8799L229.943 38.0163L230.301 40.2821L230.46 42.6746L230.234 45.6729L229.691 48.576L228.683 51.2561L227.33 53.7445L225.712 56.1052L223.803 58.2107L221.668 59.9972L219.281 61.5604L216.721 62.8364L213.976 63.7616L211.059 64.3039L208.022 64.5273L205.555 64.4634L203.367 64.3039L201.232 63.9531L199.19 63.4746L197.281 62.6132L195.371 61.5605L193.395 60.1249L191.326 58.2108L189.775 56.2329L188.515 54.1913L187.573 51.8943L187.03 49.502L186.672 46.949L186.606 44.1739V41.8455H202.002V43.4726L202.161 44.4612L202.36 45.6091L202.877 46.663L203.487 47.6516L204.72 48.7994L206.046 49.502L207.532 49.916L209.017 50.0755L210.383 49.916L211.576 49.566L212.703 48.9274L213.618 48.0655L214.388 47.0769L214.878 45.9604L215.037 44.6845L214.878 43.5993L214.388 42.6747L213.738 41.9734L212.836 41.3349L211.841 40.8569L210.807 40.4103L209.667 39.995L207.598 39.2297L205.688 38.4958L203.911 37.7932L202.161 37.0279L200.092 36.0067L198.063 34.8275L196.339 33.391L194.894 31.7638L193.753 29.9146L192.812 28.0002L192.268 25.8951L191.91 23.5339L191.751 21.1416L191.976 18.3025L192.52 15.5901L193.461 13.0383L194.655 10.6459L196.22 8.44415L198.063 6.46575L200.026 4.74323L202.293 3.27666L204.786 2.12745L207.399 1.20289L210.157 0.723591L212.969 0.5Z" fill="#FFCD00"/>
</svg>
