<?xml version="1.0" encoding="UTF-8" standalone="no"?>
<!-- Created with Inkscape (http://www.inkscape.org/) -->

<svg
   xmlns:dc="http://purl.org/dc/elements/1.1/"
   xmlns:cc="http://creativecommons.org/ns#"
   xmlns:rdf="http://www.w3.org/1999/02/22-rdf-syntax-ns#"
   xmlns:svg="http://www.w3.org/2000/svg"
   xmlns="http://www.w3.org/2000/svg"
   xmlns:sodipodi="http://sodipodi.sourceforge.net/DTD/sodipodi-0.dtd"
   xmlns:inkscape="http://www.inkscape.org/namespaces/inkscape"
   width="233.29385"
   height="65.027428"
   viewBox="0 0 61.725665 17.205173"
   version="1.1"
   id="svg2069"
   inkscape:version="0.92.0 r15299"
   sodipodi:docname="estes.svg">
  <defs
     id="defs2063">
    <clipPath
       id="clipPath836"
       clipPathUnits="userSpaceOnUse">
      <path
         inkscape:connector-curvature="0"
         id="path834"
         d="M 0,0 H 176 V 50.079 H 0 Z" />
    </clipPath>
  </defs>
  <sodipodi:namedview
     id="base"
     pagecolor="#ffffff"
     bordercolor="#666666"
     borderopacity="1.0"
     inkscape:pageopacity="0.0"
     inkscape:pageshadow="2"
     inkscape:zoom="3.4626919"
     inkscape:cx="129.43139"
     inkscape:cy="32.013713"
     inkscape:document-units="mm"
     inkscape:current-layer="layer1"
     showgrid="false"
     fit-margin-top="0"
     fit-margin-left="0"
     fit-margin-right="0"
     fit-margin-bottom="0"
     units="px"
     inkscape:window-width="1280"
     inkscape:window-height="744"
     inkscape:window-x="-4"
     inkscape:window-y="-4"
     inkscape:window-maximized="1" />
  <metadata
     id="metadata2066">
    <rdf:RDF>
      <cc:Work
         rdf:about="">
        <dc:format>image/svg+xml</dc:format>
        <dc:type
           rdf:resource="http://purl.org/dc/dcmitype/StillImage" />
        <dc:title></dc:title>
      </cc:Work>
    </rdf:RDF>
  </metadata>
  <g
     inkscape:label="Layer 1"
     inkscape:groupmode="layer"
     id="layer1"
     transform="translate(-55.448008,-127.32483)">
    <g
       id="g6628"
       transform="translate(0.13229174,-0.13228883)">
      <path
         d="m 75.327701,127.58941 0.667347,0.0339 0.658925,0.11817 0.633313,0.18554 0.598927,0.24498 0.564894,0.32064 0.504895,0.37144 0.46209,0.43052 0.393671,0.47268 0.325253,0.54005 0.222449,0.58255 0.145609,0.61607 0.05965,0.65856 v 0.91978 h -3.876363 v -0.18554 l -0.01719,-0.16896 -0.01719,-0.2277 -0.06,-0.20248 -0.09403,-0.21111 -0.239641,-0.29543 -0.299639,-0.21111 -0.359287,-0.12646 -0.410863,-0.0421 -0.299289,0.0252 -0.299639,0.0674 -0.282447,0.11816 -0.239641,0.16896 -0.188064,0.20248 -0.128417,0.24498 -0.04281,0.27849 0.04281,0.26985 0.111225,0.21975 0.171222,0.16862 0.222449,0.1351 0.239641,0.10987 0.265255,0.0926 1.069789,0.36315 0.46209,0.16861 0.470511,0.18589 0.470861,0.21941 0.504896,0.30371 0.598927,0.43052 0.479283,0.44745 0.419284,0.53176 0.316481,0.55699 0.222449,0.6247 0.128416,0.67515 0.04281,0.72594 -0.05965,0.79332 -0.145609,0.7681 -0.265255,0.70911 -0.359637,0.6584 -0.427705,0.6246 -0.504896,0.55708 -0.556122,0.47268 -0.642084,0.41359 -0.676118,0.33761 -0.727344,0.24478 -0.761378,0.14349 -0.787343,0.0591 -0.658925,-0.0169 -0.599279,-0.0422 -0.556122,-0.0928 -0.547701,-0.12661 -0.504895,-0.22791 -0.504896,-0.27852 -0.522088,-0.37984 -0.522088,-0.50643 -0.436477,-0.52333 -0.316481,-0.54019 -0.239641,-0.60773 -0.171222,-0.63297 -0.09403,-0.67549 -0.01719,-0.73424 v -0.61606 h 4.081971 v 0.43052 l 0.03439,0.26156 0.07684,0.30371 0.128417,0.27884 0.171222,0.26156 0.239641,0.24463 0.282447,0.18589 0.282447,0.11817 0.316481,0.0674 0.316831,0.0252 0.359287,-0.0422 0.333673,-0.0926 0.299639,-0.16896 0.239641,-0.22804 0.205257,-0.26156 0.136837,-0.29542 0.03439,-0.33758 -0.03439,-0.28713 -0.136837,-0.24463 -0.162451,-0.18554 -0.248413,-0.16896 -0.256483,-0.12646 -0.282446,-0.11817 -0.29964,-0.10988 -0.564893,-0.20248 -0.487703,-0.19418 -0.46209,-0.18589 -0.487703,-0.20248 -0.522088,-0.27019 -0.547702,-0.31201 -0.46209,-0.38008 -0.393671,-0.43052 -0.299639,-0.48926 -0.23087,-0.50653 -0.162801,-0.55698 -0.09403,-0.62471 -0.04281,-0.63299 0.06,-0.75117 0.15403,-0.71765 0.239641,-0.67515 0.333674,-0.633 0.393671,-0.58255 0.487703,-0.52346 0.547701,-0.45575 0.599279,-0.38802 0.632961,-0.30406 0.69331,-0.24463 0.727345,-0.12681 z"
         style="fill:#ffd200;fill-opacity:1;fill-rule:evenodd;stroke:none;stroke-width:0.04874572;stroke-linecap:butt;stroke-linejoin:round;stroke-miterlimit:10;stroke-dasharray:none;stroke-opacity:1"
         id="path838"
         inkscape:connector-curvature="0" />
      <path
         d="m 58.408963,127.94392 h 10.739995 l -0.676118,4.4061 h -6.734865 l -0.171222,1.67129 h 6.16155 l -0.676118,4.07682 h -6.289967 l -0.256483,1.64606 h 6.863282 l -0.744537,4.4312 H 55.448008 l 0.09413,-0.5233 0.12835,-0.60774 0.136943,-0.69215 0.128346,-0.7681 0.145504,-0.82718 0.15403,-0.87797 0.171152,-0.91978 0.162591,-0.93706 0.171153,-0.97921 0.188274,-0.95364 0.171152,-0.97921 0.162592,-0.95364 0.171152,-0.92013 0.145504,-0.90319 0.15403,-0.84412 0.145469,-0.80161 0.136942,-0.71765 0.128347,-0.65822 0.09414,-0.55732 0.09414,-0.45575 z"
         style="fill:#ffd200;fill-opacity:1;fill-rule:evenodd;stroke:none;stroke-width:0.04874572;stroke-linecap:butt;stroke-linejoin:round;stroke-miterlimit:10;stroke-dasharray:none;stroke-opacity:1"
         id="path840"
         inkscape:connector-curvature="0" />
      <path
         d="m 82.113793,127.94392 h 11.476813 l -0.7298,4.4061 h -3.652511 l -1.959935,11.82537 h -4.330033 l 2.045196,-11.82537 h -3.654265 z"
         style="fill:#ffd200;fill-opacity:1;fill-rule:evenodd;stroke:none;stroke-width:0.04874572;stroke-linecap:butt;stroke-linejoin:round;stroke-miterlimit:10;stroke-dasharray:none;stroke-opacity:1"
         id="path842"
         inkscape:connector-curvature="0" />
      <path
         d="m 94.822144,127.94392 h 10.817186 l -0.69471,4.4061 h -6.715571 l -0.256132,1.65436 h 6.245403 l -0.74383,4.09375 H 97.2361 l -0.242098,1.64606 h 6.848898 l -0.74735,4.4312 H 91.920486 l 0.01754,-0.22788 0.05965,-0.32075 0.05965,-0.43049 0.08772,-0.52333 0.09123,-0.59927 0.136837,-0.67525 0.129821,-0.73445 0.12982,-0.76809 0.150872,-0.82718 0.171924,-0.8607 0.164907,-0.88626 0.501738,-2.7013 0.154381,-0.87762 0.164907,-0.86105 0.154381,-0.82718 0.143854,-0.78502 0.136838,-0.73424 0.12982,-0.67515 0.09473,-0.6247 0.09122,-0.52347 0.07719,-0.43052 z"
         style="fill:#ffd200;fill-opacity:1;fill-rule:evenodd;stroke:none;stroke-width:0.04874572;stroke-linecap:butt;stroke-linejoin:round;stroke-miterlimit:10;stroke-dasharray:none;stroke-opacity:1"
         id="path844"
         inkscape:connector-curvature="0" />
      <path
         d="m 111.66369,127.58941 0.67717,0.0339 0.65612,0.11817 0.63507,0.18554 0.59998,0.24498 0.56489,0.32064 0.50525,0.37144 0.44209,0.43052 0.39648,0.47268 0.33332,0.54005 0.23157,0.58255 0.14386,0.61607 0.0596,0.65856 v 0.91978 h -3.8946 v -0.3545 l -0.0421,-0.2277 -0.0526,-0.20248 -0.0912,-0.21111 -0.18947,-0.24498 -0.22105,-0.18555 -0.26665,-0.15202 -0.28421,-0.0674 -0.33332,-0.0252 -0.31578,0.0252 -0.29823,0.0674 -0.26666,0.11816 -0.23859,0.16896 -0.18947,0.20248 -0.12631,0.24498 -0.0456,0.27849 0.0456,0.26985 0.10877,0.21975 0.17192,0.16862 0.22456,0.1351 0.23859,0.10987 0.26315,0.0926 1.06312,0.36315 0.47016,0.16861 0.45262,0.18589 0.46314,0.21941 0.50524,0.30371 0.52981,0.37144 0.4456,0.39666 0.39297,0.43052 0.31578,0.4896 0.22455,0.50654 0.18596,0.56527 0.0947,0.59949 0.0421,0.63299 -0.0597,0.79332 -0.14385,0.7681 -0.26666,0.70911 -0.35788,0.6584 -0.42806,0.6246 -0.50525,0.55708 -0.56489,0.47268 -0.63156,0.41359 -0.67717,0.33761 -0.72629,0.24478 -0.7719,0.14349 -0.80349,0.0591 -0.65261,-0.0169 -0.57892,-0.0422 -0.5649,-0.0928 -0.54033,-0.12661 -0.50525,-0.22791 -0.50524,-0.27852 -0.52279,-0.37984 -0.54735,-0.50643 -0.41052,-0.52333 -0.33332,-0.54019 -0.24911,-0.60773 -0.14386,-0.63297 -0.0947,-0.67549 -0.0175,-0.73424 v -0.61606 h 4.07355 v 0.43052 l 0.0421,0.26156 0.0526,0.30371 0.13684,0.27884 0.16139,0.26156 0.32631,0.30371 0.35086,0.18589 0.39297,0.10953 0.39297,0.0422 0.36139,-0.0422 0.31578,-0.0926 0.29824,-0.16896 0.2421,-0.22804 0.2035,-0.26156 0.12982,-0.29542 0.0421,-0.33758 -0.0421,-0.28713 -0.12982,-0.24463 -0.17193,-0.18554 -0.23858,-0.16896 -0.26315,-0.12646 -0.27368,-0.11817 -0.30174,-0.10988 -0.54735,-0.20248 -0.50525,-0.19418 -0.47016,-0.18589 -0.46314,-0.20248 -0.54735,-0.27019 -0.53683,-0.31201 -0.45612,-0.38008 -0.38245,-0.43052 -0.30174,-0.48926 -0.24911,-0.50653 -0.14386,-0.55698 -0.0947,-0.62471 -0.0421,-0.63299 0.0596,-0.75117 0.14386,-0.71765 0.24911,-0.67515 0.31578,-0.633 0.41402,-0.58255 0.4877,-0.52346 0.51928,-0.45575 0.59998,-0.38802 0.65963,-0.30406 0.69121,-0.24463 0.7298,-0.12681 z"
         style="fill:#ffd200;fill-opacity:1;fill-rule:evenodd;stroke:none;stroke-width:0.04874572;stroke-linecap:butt;stroke-linejoin:round;stroke-miterlimit:10;stroke-dasharray:none;stroke-opacity:1"
         id="path846"
         inkscape:connector-curvature="0" />
    </g>
  </g>
</svg>
